{"glyphs":{"0":{"ha":912,"x_min":90,"x_max":821,"o":"m 455 -16 q 273 -16 455 -16 q 90 459 90 -16 q 455 935 90 935 q 821 459 821 935 q 455 -16 821 -16 m 191 460 q 207 290 191 361 q 247 178 222 218 q 310 114 272 138 q 380 83 347 90 q 455 77 414 77 q 530 83 497 77 q 601 114 564 90 q 664 178 639 138 q 705 290 689 218 q 721 460 721 361 q 698 662 721 581 q 633 780 675 743 q 551 830 591 817 q 456 843 510 843 q 360 830 401 843 q 278 780 319 817 q 213 662 236 743 q 191 460 191 581 z "},"1":{"ha":626,"x_min":143,"x_max":428,"o":"m 143 700 l 143 818 l 314 926 l 428 926 l 428 0 l 328 0 l 328 822 l 143 700 z "},"2":{"ha":806,"x_min":107,"x_max":692,"o":"m 107 0 l 107 87 q 249 202 176 139 q 400 348 321 265 q 529 519 479 431 q 578 677 578 607 q 359 839 578 839 q 117 758 231 839 l 117 868 q 368 939 233 939 q 602 862 526 939 q 677 677 677 786 q 640 520 677 602 q 537 360 602 437 q 408 220 472 282 q 272 100 344 158 l 692 100 l 692 0 l 107 0 z "},"3":{"ha":809,"x_min":113,"x_max":701,"o":"m 113 47 l 113 150 q 347 89 221 89 q 536 135 471 89 q 602 267 602 180 q 535 398 602 353 q 342 444 468 444 l 240 444 l 240 541 l 346 541 q 501 578 448 541 q 554 689 554 616 q 498 800 554 761 q 335 839 441 839 q 135 790 232 839 l 135 892 q 342 939 233 939 q 346 939 345 939 q 579 865 504 939 q 654 689 654 791 q 554 513 654 572 l 534 501 q 552 493 541 498 q 592 467 564 488 q 643 421 621 446 q 683 354 665 396 q 701 264 701 311 q 683 164 701 211 q 626 76 664 117 q 519 13 587 36 q 359 -11 450 -11 q 113 47 226 -11 z "},"4":{"ha":821,"x_min":53,"x_max":734,"o":"m 53 278 l 53 385 l 490 926 l 603 926 l 603 371 l 734 371 l 734 278 l 603 278 l 603 0 l 503 0 l 503 278 l 53 278 m 164 371 l 503 371 l 503 783 l 164 371 z "},"5":{"ha":815,"x_min":121,"x_max":703,"o":"m 121 498 l 168 926 l 644 926 l 644 828 l 254 828 l 228 553 q 408 578 310 578 q 512 565 465 578 q 605 522 559 553 q 676 431 650 492 q 703 283 703 370 q 676 136 703 197 q 605 44 650 75 q 512 1 559 14 q 408 -11 465 -11 q 143 46 248 -11 l 143 150 q 401 86 245 86 q 495 99 456 86 q 555 131 534 113 q 588 178 576 149 q 602 230 599 207 q 604 283 604 253 q 588 387 604 346 q 539 447 571 428 q 476 472 507 465 q 401 478 444 478 q 281 467 336 478 q 205 444 227 456 l 183 435 l 121 498 z "},"6":{"ha":809,"x_min":90,"x_max":721,"o":"m 90 424 q 107 598 90 519 q 152 730 125 677 q 217 822 179 782 q 293 883 256 861 q 373 917 330 904 q 449 935 416 930 q 513 939 481 939 q 647 921 587 939 l 647 828 q 528 844 581 844 q 524 844 526 844 q 461 840 492 844 q 384 818 431 836 q 301 769 338 800 q 235 676 265 737 q 196 532 205 615 q 406 593 286 593 q 636 514 551 593 q 721 301 721 436 q 704 191 721 244 q 651 91 686 138 q 552 17 615 45 q 406 -11 489 -11 q 90 424 90 -11 m 191 421 q 209 257 192 326 q 248 156 227 189 q 304 105 269 123 q 358 85 339 87 q 406 83 376 83 q 522 109 475 83 q 589 176 570 135 q 614 246 608 216 q 621 302 621 275 q 565 448 621 397 q 406 500 510 500 q 191 421 269 500 z "},"7":{"ha":797,"x_min":97,"x_max":729,"o":"m 97 827 l 97 926 l 729 926 l 729 833 l 328 0 l 216 0 l 621 827 l 97 827 z "},"8":{"ha":808,"x_min":85,"x_max":726,"o":"m 85 275 q 210 484 85 413 q 244 500 244 500 l 231 507 q 201 528 222 511 q 162 565 179 545 q 133 622 146 586 q 119 699 119 659 q 190 868 119 797 q 406 939 260 939 q 622 869 551 939 q 692 699 692 799 q 591 513 692 574 l 571 501 q 588 494 578 498 q 625 470 599 489 q 672 428 652 452 q 710 363 693 404 q 726 275 726 322 q 709 174 726 222 q 655 83 692 126 q 555 15 619 40 q 406 -11 490 -11 q 164 75 243 -11 q 85 275 85 161 m 184 275 q 188 238 184 257 q 203 189 191 218 q 239 138 216 160 q 304 99 261 115 q 406 83 347 83 q 507 99 464 83 q 572 138 550 115 q 608 189 595 160 q 624 238 621 218 q 627 275 627 257 q 570 403 627 359 q 406 447 513 447 q 241 402 298 447 q 184 275 184 358 m 220 699 q 269 581 220 623 q 406 539 318 539 q 542 582 493 539 q 591 699 591 624 q 406 840 591 840 q 220 699 220 840 z "},"9":{"ha":815,"x_min":81,"x_max":711,"o":"m 81 627 q 98 737 81 684 q 151 837 115 790 q 249 911 186 884 q 396 939 313 939 q 711 503 711 939 q 679 272 711 370 q 600 121 646 174 q 491 37 554 68 q 382 -3 428 5 q 289 -11 336 -11 q 154 5 218 -11 l 154 100 q 273 83 209 83 q 278 83 275 83 q 340 87 310 83 q 417 110 371 92 q 499 159 464 127 q 565 252 534 191 q 604 396 596 313 q 396 335 522 335 q 165 413 250 335 q 81 627 81 492 m 180 625 q 236 479 180 531 q 396 428 292 428 q 611 507 536 428 q 592 671 610 603 q 553 772 575 739 q 497 822 532 804 q 444 842 463 840 q 396 844 425 844 q 279 819 327 844 q 213 752 232 793 q 187 682 193 711 q 180 625 180 653 z "}," ":{"ha":469,"x_min":0,"x_max":0,"o":""},"!":{"ha":516,"x_min":205,"x_max":317,"o":"m 205 0 l 205 111 l 317 111 l 317 0 l 205 0 m 211 926 l 311 926 l 301 233 l 221 233 l 211 926 z "},"\"":{"ha":529,"x_min":113,"x_max":414,"o":"m 113 939 l 228 939 l 204 660 l 138 660 l 113 939 m 298 939 l 414 939 l 389 660 l 322 660 l 298 939 z "},"#":{"ha":821,"x_min":98,"x_max":732,"o":"m 98 175 l 98 258 l 227 258 l 264 479 l 138 479 l 138 562 l 279 562 l 307 726 l 392 726 l 364 562 l 547 562 l 576 726 l 661 726 l 632 562 l 732 562 l 732 479 l 618 479 l 579 258 l 692 258 l 692 175 l 566 175 l 541 26 l 456 26 l 481 175 l 297 175 l 271 26 l 186 26 l 212 175 l 98 175 m 311 258 l 494 258 l 533 479 l 349 479 l 311 258 z "},"$":{"ha":801,"x_min":104,"x_max":715,"o":"m 104 681 q 169 850 104 778 q 368 936 233 922 l 368 1078 l 443 1078 l 443 939 q 656 884 555 933 l 656 781 q 443 839 554 838 l 443 521 q 543 483 503 501 q 627 433 583 465 q 693 352 671 401 q 715 236 715 302 q 644 66 715 130 q 443 -8 572 3 l 443 -150 l 368 -150 l 368 -11 q 113 54 228 -7 l 113 163 q 368 89 220 92 l 368 441 q 289 467 317 457 q 220 496 261 476 q 158 539 179 517 q 120 598 136 562 q 104 681 104 635 m 204 681 q 246 599 204 628 q 368 545 288 570 l 368 835 q 204 681 204 812 m 443 92 q 615 236 615 114 q 571 348 615 308 q 443 418 526 389 l 443 92 z "},"%":{"ha":1205,"x_min":98,"x_max":1108,"o":"m 98 667 q 117 795 98 742 q 166 874 135 848 q 229 911 197 900 q 300 922 261 922 q 441 866 383 922 q 500 667 500 810 q 482 537 500 590 q 433 458 464 485 q 370 421 403 432 q 300 410 338 410 q 229 421 261 410 q 166 458 197 432 q 117 537 135 485 q 98 667 98 590 m 208 813 q 192 795 208 813 q 175 667 175 777 q 209 519 175 557 q 300 482 243 482 q 390 519 357 482 q 424 667 424 557 q 390 813 424 777 q 300 850 357 850 q 208 813 241 850 m 268 0 l 850 926 l 939 926 l 357 0 l 268 0 m 725 132 q 716 158 725 132 q 707 261 707 184 q 725 390 707 338 q 774 469 743 443 q 838 507 806 496 q 908 518 869 518 q 978 507 945 518 q 1042 469 1011 496 q 1090 390 1072 443 q 1108 261 1108 338 q 1090 132 1108 184 q 1042 53 1072 79 q 978 15 1011 26 q 908 4 945 4 q 838 15 869 4 q 774 53 806 26 q 725 132 743 79 m 817 408 q 800 390 817 408 q 783 261 783 371 q 817 114 783 151 q 908 77 851 77 q 999 114 965 77 q 1032 261 1032 151 q 999 408 1032 371 q 908 446 965 446 q 817 408 851 446 z "},"&":{"ha":888,"x_min":75,"x_max":842,"o":"m 75 256 q 113 405 75 336 q 262 534 151 473 q 171 726 171 648 q 233 874 171 812 q 380 936 294 936 q 530 877 469 936 q 591 732 591 818 q 551 607 591 658 q 421 504 511 557 l 623 264 q 679 403 661 332 l 770 403 q 688 184 747 283 l 842 0 l 711 0 l 627 103 q 366 -11 517 -11 q 231 15 290 -11 q 140 84 172 41 q 92 170 109 126 q 75 256 75 214 m 174 258 q 182 210 174 236 q 211 155 191 184 q 272 105 231 125 q 370 86 313 86 q 567 174 486 86 l 325 464 q 238 406 272 436 q 192 347 204 376 q 176 301 179 318 q 174 258 174 285 m 268 725 q 355 581 268 676 q 471 659 444 628 q 498 730 498 690 q 465 806 498 777 q 383 836 432 836 q 302 804 336 836 q 268 725 268 771 z "},"'":{"ha":345,"x_min":113,"x_max":228,"o":"m 113 939 l 228 939 l 204 660 l 138 660 l 113 939 z "},"(":{"ha":479,"x_min":129,"x_max":389,"o":"m 129 424 q 283 1006 130 729 l 389 1006 q 348 929 369 974 q 298 807 328 885 q 249 628 268 729 q 229 424 229 526 q 249 220 229 322 q 298 41 268 118 q 349 -81 328 -36 q 389 -157 371 -126 l 283 -157 q 129 424 130 120 z "},")":{"ha":479,"x_min":90,"x_max":351,"o":"m 90 -157 q 131 -81 110 -125 q 182 41 151 -37 q 232 221 212 119 q 252 425 252 322 q 215 694 252 557 q 149 895 179 831 q 90 1006 118 960 l 197 1006 q 351 425 351 729 q 197 -157 351 119 l 90 -157 z "},"*":{"ha":570,"x_min":117,"x_max":452,"o":"m 117 754 l 237 807 l 117 861 l 154 925 l 260 850 l 245 977 l 321 977 l 310 850 l 414 925 l 452 861 l 332 807 l 452 754 l 414 688 l 310 764 l 321 639 l 245 639 l 260 764 l 154 688 l 117 754 z "},"+":{"ha":765,"x_min":135,"x_max":628,"o":"m 135 374 l 135 457 l 340 457 l 340 663 l 424 663 l 424 457 l 628 457 l 628 374 l 424 374 l 424 170 l 340 170 l 340 374 l 135 374 z "},",":{"ha":435,"x_min":103,"x_max":319,"o":"m 103 -155 l 205 117 l 319 117 l 203 -155 l 103 -155 z "},"-":{"ha":644,"x_min":110,"x_max":533,"o":"m 110 366 l 110 463 l 533 463 l 533 366 l 110 366 z "},".":{"ha":455,"x_min":176,"x_max":288,"o":"m 176 0 l 176 111 l 288 111 l 288 0 l 176 0 z "},"/":{"ha":561,"x_min":-20,"x_max":582,"o":"m -20 -136 l 490 1050 l 582 1050 l 71 -136 l -20 -136 z "},":":{"ha":543,"x_min":220,"x_max":330,"o":"m 220 66 l 220 178 l 330 178 l 330 66 l 220 66 m 220 511 l 220 623 l 330 623 l 330 511 l 220 511 z "},";":{"ha":579,"x_min":135,"x_max":351,"o":"m 135 -155 l 237 117 l 351 117 l 235 -155 l 135 -155 m 239 511 l 239 623 l 350 623 l 350 511 l 239 511 z "},"<":{"ha":916,"x_min":167,"x_max":739,"o":"m 167 326 l 167 421 l 739 681 l 739 570 l 283 374 l 739 176 l 739 66 l 167 326 z "},"=":{"ha":886,"x_min":176,"x_max":711,"o":"m 176 258 l 176 355 l 711 355 l 711 258 l 176 258 m 176 473 l 176 570 l 711 570 l 711 473 l 176 473 z "},">":{"ha":901,"x_min":183,"x_max":754,"o":"m 183 66 l 183 176 l 637 374 l 183 570 l 183 681 l 754 421 l 754 326 l 183 66 z "},"?":{"ha":673,"x_min":111,"x_max":579,"o":"m 111 777 l 111 885 q 304 937 188 937 q 386 928 346 937 q 474 894 427 918 q 550 814 521 869 q 579 681 579 760 q 558 584 579 625 q 506 517 536 543 l 444 466 q 392 397 414 440 q 371 294 371 354 l 371 233 l 271 233 l 271 301 q 292 424 271 372 q 345 505 314 476 q 406 558 375 534 q 458 612 436 582 q 479 681 479 642 q 297 838 479 838 q 111 777 191 838 m 265 0 l 265 111 l 376 111 l 376 0 l 265 0 z "},"@":{"ha":1267,"x_min":115,"x_max":1168,"o":"m 115 252 q 205 554 115 417 q 432 763 296 690 q 710 836 568 836 q 826 822 766 836 q 948 772 886 807 q 1058 687 1010 737 q 1137 558 1107 636 q 1168 386 1168 481 q 1106 140 1168 236 q 942 45 1044 45 q 812 113 849 45 q 612 45 747 45 q 460 87 515 45 q 404 203 404 129 q 415 267 404 236 q 456 331 427 297 q 549 384 485 364 q 705 404 614 404 q 808 397 755 404 q 810 427 810 407 q 806 467 810 450 q 790 501 802 484 q 749 527 778 518 q 675 536 720 536 q 501 507 578 536 l 513 587 q 675 615 596 615 q 836 567 781 615 q 890 427 890 519 q 883 330 890 387 q 871 237 875 273 q 868 182 868 210 q 868 164 868 173 q 889 110 869 127 q 947 93 908 93 q 1062 170 1008 93 q 1116 382 1116 248 q 1078 559 1116 480 q 980 686 1040 639 q 850 758 920 733 q 710 783 781 783 q 334 627 499 783 q 170 252 170 471 q 204 68 170 147 q 288 -52 239 -11 q 398 -119 336 -93 q 502 -151 460 -144 q 579 -157 545 -157 q 871 -89 751 -157 l 859 -151 q 568 -207 742 -207 q 450 -192 510 -207 q 329 -141 390 -176 q 221 -55 268 -106 q 145 76 175 -4 q 115 252 115 155 m 612 125 q 672 131 646 125 q 716 142 699 136 q 748 164 734 149 q 769 189 762 179 q 782 220 777 199 q 789 251 787 241 q 794 286 791 261 q 798 318 796 311 q 705 323 760 323 q 485 203 485 323 q 612 125 485 125 z "},"A":{"ha":899,"x_min":29,"x_max":867,"o":"m 29 0 l 399 926 l 498 926 l 867 0 l 760 0 l 648 289 l 249 289 l 138 0 l 29 0 m 286 385 l 611 385 l 449 808 l 286 385 z "},"B":{"ha":862,"x_min":121,"x_max":791,"o":"m 121 0 l 121 926 l 428 926 q 736 679 736 926 q 726 607 736 640 q 701 554 715 574 q 672 520 686 534 q 647 500 659 505 l 637 493 q 654 488 644 492 q 691 465 664 484 q 738 424 718 447 q 775 357 758 400 q 791 262 791 314 q 456 0 791 0 l 121 0 m 221 93 l 464 93 q 631 130 570 93 q 692 268 692 167 q 677 341 692 311 q 642 390 663 372 q 587 416 621 407 q 526 428 554 425 q 460 431 497 431 l 221 431 l 221 93 m 221 525 l 450 525 q 586 554 535 525 q 636 671 636 583 q 587 796 636 761 q 437 831 538 831 l 221 831 l 221 525 z "},"C":{"ha":872,"x_min":85,"x_max":796,"o":"m 514 -11 q 85 464 85 -11 q 514 939 85 939 q 796 885 663 939 l 796 789 q 525 844 664 844 q 267 753 349 844 q 184 464 184 661 q 267 175 184 267 q 525 83 349 83 q 796 138 667 83 l 796 41 q 517 -11 663 -11 q 514 -11 515 -11 z "},"D":{"ha":930,"x_min":121,"x_max":846,"o":"m 121 0 l 121 926 l 411 926 q 846 464 846 926 q 411 0 846 0 l 121 0 m 221 94 l 404 94 q 664 183 582 94 q 746 464 746 272 q 664 745 746 656 q 404 833 582 833 l 221 833 l 221 94 z "},"E":{"ha":786,"x_min":121,"x_max":705,"o":"m 121 0 l 121 926 l 705 926 l 705 832 l 221 832 l 221 513 l 647 513 l 647 415 l 221 415 l 221 94 l 705 94 l 705 0 l 121 0 z "},"F":{"ha":744,"x_min":121,"x_max":689,"o":"m 121 0 l 121 926 l 689 926 l 689 832 l 221 832 l 221 513 l 632 513 l 632 415 l 221 415 l 221 0 l 121 0 z "},"G":{"ha":940,"x_min":85,"x_max":838,"o":"m 514 -11 q 85 464 85 -11 q 514 939 85 939 q 806 880 668 939 l 806 783 q 525 843 671 843 q 267 751 349 843 q 184 464 184 660 q 267 176 184 267 q 525 85 349 85 q 737 118 636 85 l 737 407 l 514 407 l 514 504 l 838 504 l 838 61 q 514 -11 688 -11 z "},"H":{"ha":936,"x_min":121,"x_max":814,"o":"m 121 0 l 121 926 l 221 926 l 221 511 l 714 511 l 714 926 l 814 926 l 814 0 l 714 0 l 714 415 l 221 415 l 221 0 l 121 0 z "},"I":{"ha":340,"x_min":121,"x_max":221,"o":"m 121 0 l 121 926 l 221 926 l 221 0 l 121 0 z "},"J":{"ha":621,"x_min":40,"x_max":489,"o":"m 40 37 l 40 142 q 211 86 119 86 q 347 133 305 86 q 389 285 389 179 l 389 926 l 489 926 l 489 277 q 465 132 489 192 q 400 43 441 72 q 316 1 359 14 q 224 -11 273 -11 q 40 37 124 -11 z "},"K":{"ha":878,"x_min":121,"x_max":817,"o":"m 121 0 l 121 926 l 221 926 l 221 449 l 650 926 l 785 926 l 387 493 l 817 0 l 685 0 l 322 422 l 221 311 l 221 0 l 121 0 z "},"L":{"ha":724,"x_min":121,"x_max":694,"o":"m 121 0 l 121 926 l 221 926 l 221 97 l 694 97 l 694 0 l 121 0 z "},"M":{"ha":1098,"x_min":121,"x_max":975,"o":"m 121 0 l 121 926 l 229 926 l 547 456 l 867 926 l 975 926 l 975 0 l 875 0 l 875 762 l 547 290 l 221 762 l 221 0 l 121 0 z "},"N":{"ha":1010,"x_min":121,"x_max":888,"o":"m 121 0 l 121 926 l 235 926 l 787 146 l 787 926 l 888 926 l 888 0 l 775 0 l 221 781 l 221 0 l 121 0 z "},"O":{"ha":1037,"x_min":85,"x_max":945,"o":"m 514 -11 q 85 464 85 -11 q 514 939 85 939 q 945 464 945 939 q 514 -11 945 -11 m 264 753 q 224 707 264 753 q 184 464 184 661 q 264 175 184 267 q 514 83 343 83 q 765 175 686 83 q 844 464 844 267 q 765 753 844 661 q 514 844 686 844 q 264 753 343 844 z "},"P":{"ha":827,"x_min":119,"x_max":770,"o":"m 119 0 l 119 926 l 449 926 q 687 853 604 926 q 770 640 770 779 q 687 428 770 501 q 449 354 604 354 l 220 354 l 220 0 l 119 0 m 220 450 l 436 450 q 559 466 510 450 q 631 513 608 482 q 661 572 653 543 q 669 640 669 602 q 661 708 669 679 q 631 768 653 737 q 559 815 608 799 q 436 831 510 831 l 220 831 l 220 450 z "},"Q":{"ha":1037,"x_min":85,"x_max":945,"o":"m 85 464 q 514 939 85 939 q 945 464 945 939 q 570 -9 945 22 q 751 -129 597 -125 l 751 -220 q 618 -199 675 -220 q 532 -144 562 -179 q 488 -78 503 -110 q 468 -9 473 -46 q 85 464 85 16 m 264 753 q 224 707 264 753 q 184 464 184 661 q 264 175 184 267 q 514 83 343 83 q 765 175 686 83 q 844 464 844 267 q 765 753 844 661 q 514 844 686 844 q 264 753 343 844 z "},"R":{"ha":862,"x_min":121,"x_max":817,"o":"m 121 0 l 121 926 l 461 926 q 694 858 612 926 q 775 657 775 789 q 756 549 775 597 q 713 473 737 500 q 656 426 689 446 q 602 399 623 406 q 562 389 581 393 l 817 0 l 699 0 l 457 374 l 221 374 l 221 0 l 121 0 m 221 468 l 456 468 q 571 484 525 468 q 639 528 618 500 q 667 585 660 557 q 675 650 675 612 q 667 715 675 688 q 639 772 660 743 q 571 816 618 800 q 456 832 525 832 l 221 832 l 221 468 z "},"S":{"ha":780,"x_min":85,"x_max":696,"o":"m 85 681 q 162 863 85 788 q 404 939 240 939 q 636 884 522 939 l 636 781 q 414 839 533 839 q 243 798 302 839 q 184 681 184 758 q 223 602 184 633 q 317 554 261 570 q 440 515 374 539 q 563 464 507 492 q 657 378 619 436 q 696 236 696 319 q 609 55 696 121 q 367 -11 522 -11 q 93 54 216 -11 l 93 163 q 359 89 203 89 q 596 236 595 89 q 558 341 596 298 q 463 403 519 383 l 340 444 q 218 488 274 465 q 123 559 161 510 q 85 681 85 608 z "},"T":{"ha":789,"x_min":17,"x_max":771,"o":"m 17 829 l 17 926 l 771 926 l 771 829 l 444 829 l 444 0 l 345 0 l 345 829 l 17 829 z "},"U":{"ha":1001,"x_min":121,"x_max":873,"o":"m 121 380 l 121 926 l 221 926 l 221 375 q 497 81 221 81 q 774 375 774 81 l 774 926 l 873 926 l 873 380 q 776 90 873 190 q 497 -11 679 -11 q 218 90 315 -11 q 121 380 121 191 z "},"V":{"ha":848,"x_min":17,"x_max":827,"o":"m 17 926 l 123 926 l 422 143 l 720 926 l 827 926 l 471 0 l 372 0 l 17 926 z "},"W":{"ha":1320,"x_min":17,"x_max":1303,"o":"m 17 926 l 122 926 l 366 151 l 610 926 l 710 926 l 953 151 l 1197 926 l 1303 926 l 1004 0 l 903 0 l 660 755 l 416 0 l 314 0 l 17 926 z "},"X":{"ha":818,"x_min":17,"x_max":796,"o":"m 17 0 l 346 469 l 25 926 l 144 926 l 407 554 l 668 926 l 790 926 l 468 468 l 796 0 l 676 0 l 407 382 l 139 0 l 17 0 z "},"Y":{"ha":830,"x_min":17,"x_max":807,"o":"m 17 926 l 138 926 l 412 522 l 686 926 l 807 926 l 463 425 l 463 0 l 363 0 l 363 425 l 17 926 z "},"Z":{"ha":846,"x_min":89,"x_max":749,"o":"m 89 0 l 89 87 l 618 827 l 103 827 l 103 926 l 749 926 l 749 842 l 216 100 l 749 100 l 749 0 l 89 0 z "},"[":{"ha":532,"x_min":165,"x_max":416,"o":"m 165 -161 l 165 966 l 416 966 l 416 872 l 265 872 l 265 -66 l 416 -66 l 416 -161 l 165 -161 z "},"\\":{"ha":511,"x_min":-52,"x_max":550,"o":"m -52 1050 l 40 1050 l 550 -136 l 460 -136 l -52 1050 z "},"]":{"ha":529,"x_min":117,"x_max":367,"o":"m 117 -66 l 267 -66 l 267 872 l 117 872 l 117 966 l 367 966 l 367 -161 l 117 -161 l 117 -66 z "},"^":{"ha":777,"x_min":186,"x_max":551,"o":"m 186 657 l 330 958 l 407 958 l 551 657 l 468 657 l 370 878 l 269 657 l 186 657 z "},"_":{"ha":758,"x_min":0,"x_max":758,"o":"m 0 -33 l 758 -33 l 758 -94 l 0 -94 l 0 -33 z "},"`":{"ha":304,"x_min":64,"x_max":244,"o":"m 64 943 l 165 943 l 244 783 l 179 783 l 64 943 z "},"a":{"ha":741,"x_min":78,"x_max":653,"o":"m 78 212 q 95 297 78 260 q 138 358 113 335 q 201 398 163 382 q 270 423 240 415 q 341 435 300 431 q 399 439 382 439 q 440 440 416 440 l 551 433 q 500 566 551 526 q 349 606 449 606 q 146 572 236 606 l 146 669 q 354 705 248 705 q 576 632 500 705 q 653 416 653 558 l 653 208 q 622 95 653 142 q 543 26 591 47 q 452 -3 494 5 q 368 -11 410 -11 q 303 -7 336 -11 q 227 12 269 -3 q 153 49 184 26 q 100 114 122 72 q 78 212 78 157 m 178 212 q 366 82 178 82 q 368 82 367 82 q 553 208 553 82 l 553 342 q 429 350 507 350 q 178 212 178 350 z "},"b":{"ha":791,"x_min":115,"x_max":704,"o":"m 115 208 l 115 958 l 215 958 l 215 677 q 386 705 298 705 q 475 697 433 705 q 560 665 517 689 q 634 604 603 642 q 685 503 665 567 q 704 355 704 439 q 683 195 704 264 q 630 88 661 126 q 555 26 599 50 q 474 -4 511 3 q 399 -11 437 -11 q 268 8 323 -11 q 184 51 212 26 q 139 109 157 75 q 119 165 122 143 q 115 208 115 187 m 215 203 q 399 81 216 81 q 469 90 437 81 q 533 124 500 98 q 586 209 567 150 q 604 355 604 268 q 553 551 604 490 q 386 612 501 612 q 215 578 300 612 l 215 203 z "},"c":{"ha":655,"x_min":81,"x_max":611,"o":"m 81 347 q 110 527 81 453 q 189 638 139 602 q 291 690 239 675 q 406 705 343 705 q 611 667 510 705 l 611 571 q 416 610 517 610 q 237 547 293 610 q 180 347 180 485 q 237 146 180 208 q 416 85 293 85 q 611 123 521 85 l 611 26 q 406 -11 514 -11 q 314 -3 357 -11 q 228 30 272 5 q 152 93 183 54 q 101 196 121 131 q 81 347 81 261 z "},"d":{"ha":780,"x_min":87,"x_max":676,"o":"m 87 355 q 115 531 87 458 q 192 639 143 603 q 292 689 241 675 q 404 704 343 704 q 576 677 496 704 l 576 957 l 676 957 l 676 207 q 668 150 676 179 q 634 80 660 121 q 546 15 608 40 q 392 -11 484 -11 q 316 -4 353 -11 q 236 26 279 3 q 162 88 193 50 q 109 195 131 126 q 87 355 87 264 m 187 355 q 206 209 187 268 q 258 124 225 150 q 322 90 292 98 q 392 81 353 81 q 576 203 576 81 l 576 578 q 404 612 492 612 q 239 551 290 612 q 187 355 187 490 z "},"e":{"ha":770,"x_min":87,"x_max":697,"o":"m 87 338 q 87 342 87 339 q 87 348 87 346 q 392 705 87 705 q 508 685 456 705 q 590 638 559 665 q 644 567 621 611 q 676 493 667 524 q 692 419 686 463 q 697 366 697 377 l 697 336 l 694 288 l 189 288 q 253 136 199 183 q 414 89 307 89 q 652 140 565 89 l 652 37 q 408 -11 551 -11 q 404 -11 406 -11 q 292 4 343 -11 q 192 54 241 18 q 115 162 143 90 q 87 338 87 235 m 189 376 l 595 376 q 589 429 595 400 q 566 504 583 458 q 504 581 549 550 q 392 611 458 611 q 242 557 289 611 q 189 376 196 504 z "},"f":{"ha":458,"x_min":56,"x_max":465,"o":"m 56 602 l 56 693 l 175 693 l 175 730 q 194 854 175 802 q 236 930 212 905 q 297 968 260 954 q 353 983 334 982 q 399 985 372 985 q 465 977 436 985 l 465 888 q 415 893 437 893 q 365 890 382 893 q 323 874 347 888 q 287 824 298 860 q 275 732 275 789 l 275 693 l 465 693 l 465 602 l 275 602 l 275 0 l 175 0 l 175 602 l 56 602 z "},"g":{"ha":747,"x_min":83,"x_max":653,"o":"m 83 350 q 113 534 83 458 q 191 644 142 610 q 284 692 240 679 q 378 705 329 705 q 527 681 467 705 q 612 617 587 656 q 645 549 636 578 q 653 493 653 521 l 653 -29 q 640 -114 653 -75 q 596 -190 627 -153 q 503 -247 566 -227 q 351 -268 440 -268 q 154 -243 254 -268 l 154 -149 q 340 -174 243 -174 q 452 -162 407 -174 q 517 -128 497 -150 q 545 -84 538 -106 q 553 -32 553 -62 l 553 37 q 390 12 475 12 q 304 20 344 12 q 222 51 264 28 q 151 111 180 74 q 102 208 121 147 q 83 350 83 269 m 183 350 q 200 221 183 272 q 249 146 216 171 q 313 114 281 122 q 390 106 346 106 q 553 138 473 106 l 553 497 q 378 614 553 614 q 311 605 340 614 q 250 571 282 596 q 201 490 218 546 q 183 350 183 433 z "},"h":{"ha":801,"x_min":131,"x_max":707,"o":"m 131 0 l 131 957 l 231 957 l 231 661 q 440 705 336 705 q 637 628 568 705 q 707 411 707 551 l 707 0 l 607 0 l 607 411 q 429 606 607 606 q 231 564 332 606 l 231 0 l 131 0 z "},"i":{"ha":366,"x_min":131,"x_max":241,"o":"m 131 817 l 131 926 l 241 926 l 241 817 l 131 817 m 136 0 l 236 0 l 236 693 l 136 693 l 136 0 z "},"j":{"ha":349,"x_min":4,"x_max":252,"o":"m 4 -175 q 118 -141 90 -174 q 146 -35 146 -109 l 146 693 l 245 693 l 245 -40 q 4 -268 245 -268 l 4 -175 m 140 817 l 140 926 l 252 926 l 252 817 l 140 817 z "},"k":{"ha":762,"x_min":127,"x_max":713,"o":"m 127 0 l 127 957 l 228 957 l 228 353 l 539 693 l 675 693 l 379 375 l 713 0 l 579 0 l 314 304 l 228 211 l 228 0 l 127 0 z "},"l":{"ha":374,"x_min":140,"x_max":240,"o":"m 140 0 l 140 957 l 240 957 l 240 0 l 140 0 z "},"m":{"ha":1237,"x_min":131,"x_max":1114,"o":"m 131 0 l 131 639 q 408 705 264 705 q 591 648 522 705 q 848 705 725 705 q 1044 639 975 705 q 1114 452 1114 572 l 1114 0 l 1014 0 l 1014 452 q 1008 504 1014 481 q 986 552 1003 526 q 933 592 970 578 q 842 606 896 606 q 650 571 754 606 q 672 452 672 521 l 672 0 l 572 0 l 572 452 q 567 505 572 482 q 544 553 561 528 q 490 592 528 578 q 396 606 452 606 q 231 581 311 606 l 231 0 l 131 0 z "},"n":{"ha":806,"x_min":114,"x_max":682,"o":"m 114 0 l 114 637 q 407 705 250 705 q 610 639 538 705 q 682 452 682 572 l 682 0 l 582 0 l 582 452 q 576 504 582 481 q 552 552 570 526 q 495 592 534 578 q 396 606 456 606 q 214 578 309 606 l 214 0 l 114 0 z "},"o":{"ha":783,"x_min":68,"x_max":720,"o":"m 97 167 q 82 204 97 167 q 68 347 68 241 q 97 527 68 453 q 176 638 126 602 q 278 690 227 675 q 393 705 330 705 q 508 690 456 705 q 611 638 561 675 q 690 527 661 602 q 720 347 720 453 q 690 167 720 241 q 611 56 661 93 q 508 4 561 20 q 393 -11 456 -11 q 278 4 330 -11 q 176 56 227 20 q 97 167 126 93 m 222 550 q 195 518 222 550 q 168 347 168 486 q 222 144 168 208 q 393 81 275 81 q 565 144 511 81 q 619 347 619 207 q 565 551 619 488 q 393 614 511 614 q 222 550 275 614 z "},"p":{"ha":786,"x_min":114,"x_max":703,"o":"m 114 -257 l 114 486 q 122 543 114 514 q 156 613 131 572 q 244 680 182 654 q 399 705 307 705 q 474 699 437 705 q 554 668 511 692 q 629 606 597 644 q 681 498 660 567 q 703 338 703 429 q 675 162 703 235 q 598 54 647 90 q 498 4 549 18 q 386 -11 447 -11 q 214 16 301 -11 l 214 -257 l 114 -257 m 214 117 q 386 82 293 82 q 551 142 500 82 q 603 339 603 203 q 584 485 603 427 q 532 570 566 543 q 468 605 498 596 q 399 614 437 614 q 214 490 214 614 l 214 117 z "},"q":{"ha":780,"x_min":78,"x_max":665,"o":"m 78 338 q 99 498 78 429 q 152 606 121 567 q 226 668 183 644 q 306 699 269 692 q 382 705 343 705 q 513 687 457 705 q 596 644 568 668 q 641 585 624 619 q 662 529 659 551 q 665 486 665 507 l 665 -257 l 566 -257 l 566 16 q 395 -11 486 -11 q 283 4 334 -11 q 183 54 232 18 q 106 162 134 90 q 78 338 78 235 m 178 339 q 229 142 178 203 q 395 82 281 82 q 566 117 486 82 l 566 490 q 382 614 566 614 q 313 605 343 614 q 249 570 282 596 q 196 485 215 543 q 178 339 178 427 z "},"r":{"ha":476,"x_min":113,"x_max":449,"o":"m 113 0 l 113 637 q 449 704 269 704 l 449 608 q 212 572 335 606 l 212 0 l 113 0 z "},"s":{"ha":591,"x_min":68,"x_max":541,"o":"m 68 504 q 129 646 68 587 q 314 705 189 705 q 492 663 403 705 l 492 562 q 325 610 412 610 q 168 504 168 610 q 206 446 168 468 q 299 409 244 424 q 409 374 354 395 q 502 306 464 354 q 541 182 541 257 q 473 40 541 92 q 286 -11 406 -11 q 77 41 171 -11 l 77 147 q 282 86 176 86 q 440 182 440 86 q 402 262 440 233 q 309 306 364 292 q 199 338 254 321 q 106 396 144 355 q 68 504 68 437 z "},"t":{"ha":479,"x_min":33,"x_max":433,"o":"m 33 602 l 33 693 l 154 693 l 154 889 l 254 889 l 254 693 l 433 693 l 433 602 l 254 602 l 254 179 q 276 105 254 126 q 354 83 298 83 q 433 100 397 83 l 433 5 q 345 -11 389 -11 q 342 -11 343 -11 q 288 -5 314 -11 q 228 19 261 1 q 174 80 195 37 q 154 184 154 122 l 154 602 l 33 602 z "},"u":{"ha":815,"x_min":114,"x_max":694,"o":"m 114 292 l 114 693 l 214 693 l 214 286 q 260 131 214 180 q 404 82 306 82 q 548 131 501 82 q 595 286 595 180 l 595 693 l 694 693 l 694 292 q 619 68 694 147 q 404 -11 543 -11 q 190 68 265 -11 q 114 292 114 147 z "},"v":{"ha":720,"x_min":45,"x_max":677,"o":"m 45 693 l 151 693 l 361 125 l 571 693 l 677 693 l 411 0 l 310 0 l 45 693 z "},"w":{"ha":1087,"x_min":53,"x_max":1034,"o":"m 53 693 l 158 693 l 335 157 l 494 693 l 590 693 l 751 157 l 928 693 l 1034 693 l 803 0 l 701 0 l 543 518 l 385 0 l 283 0 l 53 693 z "},"x":{"ha":700,"x_min":39,"x_max":653,"o":"m 39 0 l 286 351 l 46 693 l 164 693 l 346 436 l 528 693 l 650 693 l 408 351 l 407 349 l 653 0 l 533 0 l 347 264 l 161 0 l 39 0 z "},"y":{"ha":697,"x_min":43,"x_max":654,"o":"m 43 693 l 150 693 l 347 144 l 547 693 l 654 693 l 371 -68 q 153 -268 297 -268 q 87 -256 119 -268 l 87 -164 q 147 -176 115 -176 q 199 -157 174 -176 q 242 -111 225 -138 q 272 -56 258 -83 q 292 -8 286 -28 l 298 11 l 43 693 z "},"z":{"ha":644,"x_min":62,"x_max":570,"o":"m 62 0 l 62 90 l 440 597 l 72 597 l 72 693 l 570 693 l 570 606 l 189 96 l 570 96 l 570 0 l 62 0 z "},"{":{"ha":517,"x_min":126,"x_max":422,"o":"m 126 374 l 126 441 q 214 542 214 464 l 214 758 q 267 914 214 860 q 422 968 321 968 l 422 873 q 340 849 367 871 q 314 765 314 827 l 314 542 q 233 407 314 461 q 314 272 314 353 l 314 49 q 340 -34 314 -11 q 422 -60 367 -57 l 422 -153 q 267 -99 321 -153 q 214 56 214 -46 l 214 272 q 126 374 214 347 z "},"|":{"ha":615,"x_min":257,"x_max":357,"o":"m 257 -138 l 257 924 l 357 924 l 357 -138 l 257 -138 z "},"}":{"ha":511,"x_min":106,"x_max":401,"o":"m 106 -60 q 188 -34 161 -57 q 214 49 214 -11 l 214 272 q 296 407 214 351 q 214 542 214 463 l 214 765 q 188 848 214 826 q 106 873 163 871 l 106 968 q 261 914 208 968 q 314 758 314 860 l 314 542 q 401 441 314 464 l 401 374 q 314 272 314 347 l 314 56 q 260 -99 314 -46 q 106 -153 207 -153 l 106 -60 z "},"~":{"ha":694,"x_min":136,"x_max":558,"o":"m 136 321 l 136 406 q 220 459 175 454 q 235 460 227 460 q 305 441 271 460 l 389 397 q 459 379 423 379 q 475 380 467 379 q 558 433 519 385 l 558 350 q 475 296 519 301 q 460 296 467 296 q 389 314 423 296 l 305 358 q 235 375 271 375 q 220 374 227 375 q 136 321 175 370 z "},"¡":{"ha":503,"x_min":205,"x_max":317,"o":"m 205 583 l 205 693 l 317 693 l 317 583 l 205 583 m 211 -233 l 221 460 l 301 460 l 311 -233 l 211 -233 z "},"¢":{"ha":662,"x_min":79,"x_max":608,"o":"m 79 463 q 158 727 79 646 q 358 819 237 808 l 358 926 l 428 926 l 428 821 q 608 783 517 819 l 608 688 q 428 725 524 722 l 428 201 q 608 240 525 204 l 608 143 q 428 106 524 110 l 428 0 l 358 0 l 358 107 q 79 463 79 135 m 222 647 q 201 616 222 647 q 179 464 179 585 q 222 281 179 343 q 358 205 265 218 l 358 722 q 222 647 265 709 z "},"£":{"ha":770,"x_min":71,"x_max":694,"o":"m 71 -21 l 71 81 q 191 111 125 107 l 191 390 l 71 390 l 71 482 l 191 482 l 191 681 q 262 863 191 788 q 485 939 334 939 q 694 885 595 939 l 694 783 q 493 843 600 843 q 290 685 290 843 l 290 482 l 570 482 l 570 390 l 290 390 l 290 109 q 389 91 325 104 q 494 71 453 78 q 566 65 526 65 q 591 66 578 65 q 694 86 647 68 l 694 -16 q 572 -37 640 -37 q 539 -35 556 -37 q 383 -10 452 -29 q 227 12 314 9 q 218 12 222 12 q 71 -21 136 12 z "},"¥":{"ha":836,"x_min":25,"x_max":817,"o":"m 25 926 l 147 926 l 421 528 l 694 926 l 817 926 l 515 489 l 689 489 l 689 406 l 471 406 l 471 275 l 689 275 l 689 192 l 471 192 l 471 0 l 371 0 l 371 192 l 153 192 l 153 275 l 371 275 l 371 406 l 153 406 l 153 489 l 326 489 l 25 926 z "},"§":{"ha":754,"x_min":81,"x_max":684,"o":"m 81 493 q 207 644 81 604 q 151 742 151 679 q 219 881 151 823 q 429 939 288 939 q 631 897 535 939 l 631 799 q 440 846 543 846 q 437 846 439 846 q 252 742 252 846 q 257 714 252 725 q 303 685 262 704 q 425 647 345 665 q 520 621 482 635 q 599 583 558 607 q 662 519 640 558 q 684 427 684 479 q 649 338 684 375 q 564 285 614 301 q 612 178 612 245 q 537 39 612 89 q 326 -11 461 -11 q 89 39 189 -11 l 89 142 q 319 85 180 85 q 513 178 513 85 q 480 247 513 219 q 332 301 447 275 q 144 370 207 330 q 81 493 81 410 m 180 493 q 186 466 180 476 q 234 436 192 456 q 355 399 275 416 q 504 349 447 379 q 583 427 583 372 q 550 496 583 468 q 403 550 517 524 q 283 583 336 566 q 180 493 180 564 z "},"¨":{"ha":534,"x_min":110,"x_max":425,"o":"m 110 783 l 110 893 l 220 893 l 220 783 l 110 783 m 315 783 l 315 893 l 425 893 l 425 783 l 315 783 z "},"©":{"ha":1080,"x_min":66,"x_max":1017,"o":"m 66 463 q 206 799 66 660 q 542 937 346 937 q 878 799 739 937 q 1017 463 1017 660 q 878 128 1017 267 q 542 -11 739 -11 q 206 128 346 -11 q 66 463 66 267 m 117 463 q 242 162 117 288 q 542 37 367 37 q 842 162 718 37 q 966 463 966 288 q 842 764 966 639 q 542 889 718 889 q 242 764 367 889 q 117 463 117 639 m 304 463 q 554 741 304 741 q 720 710 642 741 l 720 654 q 561 685 646 685 q 410 631 458 685 q 363 463 363 578 q 411 294 363 347 q 561 240 458 240 q 720 272 643 240 l 720 216 q 554 186 642 186 q 304 463 304 186 z "},"ª":{"ha":547,"x_min":106,"x_max":425,"o":"m 106 664 q 307 790 106 790 l 370 786 q 256 884 370 883 q 144 864 193 884 l 144 918 q 258 937 193 937 q 425 778 425 937 l 425 661 q 394 583 425 612 q 331 547 363 554 q 267 541 300 541 q 201 547 233 541 q 138 584 170 554 q 106 664 106 614 m 267 591 q 370 663 370 592 l 370 736 q 301 741 345 740 q 161 666 161 741 q 267 591 161 591 z "},"«":{"ha":768,"x_min":43,"x_max":676,"o":"m 43 354 l 278 618 l 412 618 l 165 354 l 412 89 l 278 89 l 43 354 m 307 354 l 542 618 l 676 618 l 429 354 l 676 89 l 542 89 l 307 354 z "},"¬":{"ha":863,"x_min":135,"x_max":729,"o":"m 135 358 l 135 450 l 729 450 l 729 220 l 637 220 l 637 358 l 135 358 z "},"®":{"ha":1080,"x_min":66,"x_max":1017,"o":"m 66 463 q 206 799 66 660 q 542 937 346 937 q 878 799 739 937 q 1017 463 1017 660 q 878 128 1017 267 q 542 -11 739 -11 q 206 128 346 -11 q 66 463 66 267 m 117 463 q 242 162 117 288 q 542 37 367 37 q 842 162 718 37 q 966 463 966 288 q 842 764 966 639 q 542 889 718 889 q 242 764 367 889 q 117 463 117 639 m 370 192 l 370 733 l 568 733 q 705 694 657 733 q 753 576 753 654 q 738 501 753 534 q 699 452 722 468 q 659 430 675 436 q 628 419 644 423 l 777 192 l 707 192 l 567 411 l 428 411 l 428 192 l 370 192 m 428 467 l 566 467 q 668 496 642 467 q 693 572 693 525 q 667 648 693 619 q 566 677 642 677 l 428 677 l 428 467 z "},"¯":{"ha":559,"x_min":119,"x_max":444,"o":"m 119 800 l 119 873 l 444 873 l 444 800 l 119 800 z "},"°":{"ha":537,"x_min":114,"x_max":416,"o":"m 114 774 q 265 929 114 929 q 378 889 339 929 q 416 775 416 850 q 265 621 416 621 q 264 621 265 621 q 114 774 114 621 m 164 775 q 188 695 164 720 q 265 671 211 671 q 342 695 318 671 q 367 775 367 720 q 342 854 367 829 q 265 879 318 879 q 188 854 211 879 q 164 775 164 829 z "},"±":{"ha":812,"x_min":157,"x_max":650,"o":"m 157 46 l 157 129 l 650 129 l 650 46 l 157 46 m 157 406 l 157 489 l 363 489 l 363 693 l 446 693 l 446 489 l 650 489 l 650 406 l 446 406 l 446 200 l 363 200 l 363 406 l 157 406 z "},"²":{"ha":455,"x_min":74,"x_max":387,"o":"m 74 643 l 74 690 q 245 846 164 757 q 326 1008 326 936 q 210 1093 326 1093 q 79 1051 138 1093 l 79 1109 q 214 1147 140 1147 q 339 1106 298 1147 q 380 1008 380 1065 q 163 697 380 874 l 387 697 l 387 643 l 74 643 z "},"³":{"ha":448,"x_min":74,"x_max":390,"o":"m 74 668 l 74 724 q 200 690 135 690 q 338 786 338 690 q 197 882 338 882 l 143 882 l 143 933 l 200 933 q 311 1014 311 933 q 193 1093 311 1093 q 86 1068 134 1093 l 86 1122 q 200 1147 142 1147 q 325 1108 285 1147 q 366 1014 366 1068 q 350 956 366 981 q 317 922 334 930 l 301 913 q 311 908 305 911 q 332 895 317 905 q 359 870 347 884 q 380 833 371 856 q 390 785 390 810 q 345 681 390 724 q 207 637 300 637 q 74 668 138 637 z "},"´":{"ha":328,"x_min":83,"x_max":265,"o":"m 83 783 l 163 943 l 265 943 l 150 783 l 83 783 z "},"µ":{"ha":846,"x_min":138,"x_max":704,"o":"m 138 -292 l 138 693 l 237 693 l 237 243 q 244 190 237 212 q 268 142 250 167 q 324 103 285 117 q 422 89 363 89 q 604 115 514 89 l 604 693 l 704 693 l 704 57 q 412 -11 573 -11 q 237 45 309 -9 l 237 -292 l 138 -292 z "},"¶":{"ha":618,"x_min":53,"x_max":510,"o":"m 53 642 q 135 853 53 779 q 372 926 217 926 l 510 926 l 510 0 l 418 0 l 418 355 l 372 355 q 135 429 217 355 q 53 642 53 503 z "},"·":{"ha":431,"x_min":161,"x_max":271,"o":"m 161 322 l 161 433 l 271 433 l 271 322 l 161 322 z "},"¸":{"ha":351,"x_min":78,"x_max":271,"o":"m 78 -167 l 192 -7 l 271 -7 l 183 -167 l 78 -167 z "},"¹":{"ha":333,"x_min":74,"x_max":227,"o":"m 74 1019 l 74 1083 l 165 1141 l 227 1141 l 227 643 l 174 643 l 174 1084 l 74 1019 z "},"º":{"ha":579,"x_min":106,"x_max":467,"o":"m 106 739 q 122 839 106 798 q 165 901 138 880 q 222 930 193 922 q 286 939 252 939 q 467 739 467 939 q 286 541 467 541 q 158 584 210 541 q 106 739 106 628 m 191 852 q 176 834 191 852 q 161 739 161 817 q 191 626 161 661 q 286 591 221 591 q 382 626 353 591 q 411 739 411 661 q 382 852 411 817 q 286 888 353 888 q 191 852 221 888 z "},"»":{"ha":768,"x_min":93,"x_max":726,"o":"m 93 89 l 339 354 l 93 618 l 227 618 l 463 354 l 227 89 l 93 89 m 357 89 l 603 354 l 357 618 l 490 618 l 726 354 l 490 89 l 357 89 z "},"¼":{"ha":972,"x_min":72,"x_max":901,"o":"m 72 814 l 72 878 l 163 936 l 225 936 l 225 439 l 171 439 l 171 880 l 72 814 m 100 -31 l 707 951 l 772 951 l 165 -31 l 100 -31 m 534 150 l 534 207 l 770 497 l 831 497 l 831 200 l 901 200 l 901 150 l 831 150 l 831 0 l 777 0 l 777 150 l 534 150 m 595 200 l 777 200 l 777 421 l 595 200 z "},"½":{"ha":990,"x_min":72,"x_max":903,"o":"m 72 814 l 72 878 l 163 936 l 225 936 l 225 439 l 171 439 l 171 880 l 72 814 m 100 -31 l 707 951 l 772 951 l 165 -31 l 100 -31 m 590 0 l 590 47 q 761 203 680 114 q 842 364 842 292 q 725 450 842 450 q 595 407 654 450 l 595 467 q 729 504 661 504 q 856 463 815 504 q 896 364 896 422 q 677 54 896 232 l 903 54 l 903 0 l 590 0 z "},"¾":{"ha":1122,"x_min":92,"x_max":1051,"o":"m 92 464 l 92 518 q 220 486 155 486 q 355 581 355 486 q 319 653 355 628 q 215 677 283 677 l 161 677 l 161 728 l 218 728 q 330 808 330 728 q 211 889 330 889 q 104 863 154 889 l 104 918 q 218 943 160 943 q 343 904 303 943 q 383 808 383 864 q 367 750 383 775 q 336 717 351 725 l 319 707 q 329 703 323 705 q 350 689 335 700 q 377 665 366 677 q 398 629 389 652 q 408 581 408 606 q 364 476 408 519 q 225 432 319 432 q 92 464 159 432 m 250 -31 l 857 951 l 922 951 l 315 -31 l 250 -31 m 685 150 l 685 207 l 920 497 l 981 497 l 981 200 l 1051 200 l 1051 150 l 981 150 l 981 0 l 926 0 l 926 150 l 685 150 m 745 200 l 926 200 l 926 421 l 745 200 z "},"¿":{"ha":671,"x_min":100,"x_max":570,"o":"m 100 14 q 121 110 100 69 q 174 176 143 150 l 235 227 q 287 296 265 253 q 309 399 309 339 l 309 461 l 408 461 l 408 392 q 387 269 408 321 q 335 188 366 216 q 274 136 304 160 q 221 81 243 111 q 200 14 200 52 q 383 -144 200 -144 q 570 -83 479 -144 l 570 -192 q 375 -244 492 -244 q 312 -239 343 -244 q 240 -218 281 -235 q 171 -174 200 -201 q 121 -99 142 -147 q 100 14 100 -50 m 302 583 l 302 693 l 414 693 l 414 583 l 302 583 z "},"À":{"ha":899,"x_min":29,"x_max":867,"o":"m 29 0 l 399 926 l 498 926 l 867 0 l 760 0 l 648 289 l 249 289 l 138 0 l 29 0 m 286 385 l 611 385 l 449 808 l 286 385 m 297 1165 l 400 1165 l 479 1006 l 412 1006 l 297 1165 z "},"Á":{"ha":899,"x_min":29,"x_max":867,"o":"m 29 0 l 399 926 l 498 926 l 867 0 l 760 0 l 648 289 l 249 289 l 138 0 l 29 0 m 286 385 l 611 385 l 449 808 l 286 385 m 416 1006 l 496 1165 l 599 1165 l 484 1006 l 416 1006 z "},"Â":{"ha":899,"x_min":29,"x_max":867,"o":"m 29 0 l 399 926 l 498 926 l 867 0 l 760 0 l 648 289 l 249 289 l 138 0 l 29 0 m 286 385 l 611 385 l 449 808 l 286 385 m 309 1006 l 419 1174 l 478 1174 l 589 1006 l 511 1006 l 449 1104 l 386 1006 l 309 1006 z "},"Ã":{"ha":899,"x_min":29,"x_max":867,"o":"m 29 0 l 399 926 l 498 926 l 867 0 l 760 0 l 648 289 l 249 289 l 138 0 l 29 0 m 253 1007 l 253 1086 q 331 1135 289 1131 q 344 1135 337 1135 q 410 1119 378 1135 l 486 1078 q 551 1062 517 1062 q 566 1063 558 1062 q 643 1111 607 1067 l 643 1035 q 566 985 607 990 q 549 985 557 985 q 486 1001 516 985 l 410 1041 q 347 1057 380 1057 q 331 1057 339 1057 q 253 1007 289 1051 m 286 385 l 611 385 l 449 808 l 286 385 z "},"Ä":{"ha":899,"x_min":29,"x_max":867,"o":"m 29 0 l 399 926 l 498 926 l 867 0 l 760 0 l 648 289 l 249 289 l 138 0 l 29 0 m 286 385 l 611 385 l 449 808 l 286 385 m 290 1006 l 290 1117 l 401 1117 l 401 1006 l 290 1006 m 496 1006 l 496 1117 l 607 1117 l 607 1006 l 496 1006 z "},"Å":{"ha":899,"x_min":29,"x_max":867,"o":"m 29 0 l 399 926 l 498 926 l 867 0 l 760 0 l 648 289 l 249 289 l 138 0 l 29 0 m 286 385 l 611 385 l 449 808 l 286 385 m 366 994 q 351 1009 366 994 q 336 1079 336 1023 q 366 1164 336 1135 q 449 1193 395 1193 q 532 1164 503 1193 q 561 1079 561 1135 q 532 994 561 1023 q 449 965 503 965 q 366 994 395 965 m 400 1132 q 393 1124 400 1132 q 386 1079 386 1116 q 400 1028 386 1043 q 449 1013 414 1013 q 497 1028 482 1013 q 511 1079 511 1043 q 497 1132 511 1116 q 449 1147 482 1147 q 400 1132 414 1147 z "},"Æ":{"ha":1315,"x_min":35,"x_max":1232,"o":"m 35 0 l 585 926 l 1232 926 l 1232 831 l 764 831 l 764 511 l 1175 511 l 1175 414 l 764 414 l 764 96 l 1232 96 l 1232 0 l 664 0 l 664 290 l 321 290 l 150 0 l 35 0 m 379 390 l 664 390 l 664 827 l 633 827 l 379 390 z "},"Ç":{"ha":872,"x_min":85,"x_max":796,"o":"m 85 465 q 514 940 85 940 q 796 888 661 940 l 796 791 q 525 846 669 846 q 267 755 349 846 q 184 467 184 664 q 267 178 184 269 q 525 86 349 86 q 796 140 667 86 l 796 45 q 554 -8 680 -1 l 469 -165 l 364 -165 l 475 -8 q 85 465 85 16 z "},"È":{"ha":786,"x_min":121,"x_max":705,"o":"m 121 0 l 121 926 l 705 926 l 705 832 l 221 832 l 221 513 l 647 513 l 647 415 l 221 415 l 221 94 l 705 94 l 705 0 l 121 0 m 301 1165 l 404 1165 l 484 1006 l 416 1006 l 301 1165 z "},"É":{"ha":786,"x_min":121,"x_max":705,"o":"m 121 0 l 121 926 l 705 926 l 705 832 l 221 832 l 221 513 l 647 513 l 647 415 l 221 415 l 221 94 l 705 94 l 705 0 l 121 0 m 383 1006 l 461 1165 l 564 1165 l 449 1006 l 383 1006 z "},"Ê":{"ha":786,"x_min":121,"x_max":705,"o":"m 121 0 l 121 926 l 705 926 l 705 832 l 221 832 l 221 513 l 647 513 l 647 415 l 221 415 l 221 94 l 705 94 l 705 0 l 121 0 m 279 1006 l 392 1174 l 449 1174 l 561 1006 l 484 1006 l 421 1104 l 357 1006 l 279 1006 z "},"Ë":{"ha":786,"x_min":121,"x_max":705,"o":"m 121 0 l 121 926 l 705 926 l 705 832 l 221 832 l 221 513 l 647 513 l 647 415 l 221 415 l 221 94 l 705 94 l 705 0 l 121 0 m 268 1006 l 268 1117 l 378 1117 l 378 1006 l 268 1006 m 473 1006 l 473 1117 l 583 1117 l 583 1006 l 473 1006 z "},"Ì":{"ha":340,"x_min":22,"x_max":221,"o":"m 22 1165 l 125 1165 l 204 1006 l 138 1006 l 22 1165 m 121 0 l 121 926 l 221 926 l 221 0 l 121 0 z "},"Í":{"ha":340,"x_min":121,"x_max":319,"o":"m 121 0 l 221 0 l 221 926 l 121 926 l 121 0 m 138 1006 l 216 1165 l 319 1165 l 204 1006 l 138 1006 z "},"Î":{"ha":340,"x_min":31,"x_max":311,"o":"m 31 1006 l 142 1174 l 200 1174 l 311 1006 l 233 1006 l 171 1104 l 109 1006 l 31 1006 m 121 0 l 221 0 l 221 926 l 121 926 l 121 0 z "},"Ï":{"ha":340,"x_min":12,"x_max":329,"o":"m 12 1006 l 12 1117 l 123 1117 l 123 1006 l 12 1006 m 121 0 l 221 0 l 221 926 l 121 926 l 121 0 m 218 1006 l 218 1117 l 329 1117 l 329 1006 l 218 1006 z "},"Ð":{"ha":996,"x_min":74,"x_max":907,"o":"m 74 421 l 74 504 l 182 504 l 182 926 l 472 926 q 907 464 907 926 q 472 0 907 0 l 182 0 l 182 421 l 74 421 m 282 94 l 465 94 q 725 183 643 94 q 807 464 807 272 q 725 745 807 656 q 465 833 643 833 l 282 833 l 282 504 l 519 504 l 519 421 l 282 421 l 282 94 z "},"Ñ":{"ha":1010,"x_min":121,"x_max":888,"o":"m 121 0 l 121 926 l 235 926 l 787 146 l 787 926 l 888 926 l 888 0 l 775 0 l 221 781 l 221 0 l 121 0 m 309 1007 l 309 1086 q 387 1135 345 1131 q 399 1135 393 1135 q 466 1119 434 1135 l 543 1078 q 608 1062 574 1062 q 623 1063 615 1062 q 700 1111 664 1067 l 700 1035 q 623 985 664 990 q 606 985 614 985 q 543 1001 573 985 l 466 1041 q 403 1057 435 1057 q 387 1057 395 1057 q 309 1007 345 1051 z "},"Ò":{"ha":1037,"x_min":85,"x_max":943,"o":"m 514 -11 q 299 -11 514 -11 q 85 464 85 -11 q 514 939 85 939 q 943 464 943 939 q 514 -11 943 -11 m 264 753 q 224 707 264 753 q 184 464 184 661 q 264 175 184 267 q 514 83 343 83 q 764 175 685 83 q 843 464 843 267 q 764 753 843 661 q 514 844 685 844 q 264 753 343 844 m 382 1165 l 484 1165 l 562 1006 l 497 1006 l 382 1165 z "},"Ó":{"ha":1037,"x_min":85,"x_max":943,"o":"m 514 -11 q 299 -11 514 -11 q 85 464 85 -11 q 514 939 85 939 q 943 464 943 939 q 514 -11 943 -11 m 264 753 q 224 707 264 753 q 184 464 184 661 q 264 175 184 267 q 514 83 343 83 q 764 175 685 83 q 843 464 843 267 q 764 753 843 661 q 514 844 685 844 q 264 753 343 844 m 465 1006 l 543 1165 l 646 1165 l 530 1006 l 465 1006 z "},"Ô":{"ha":1037,"x_min":85,"x_max":943,"o":"m 514 -11 q 299 -11 514 -11 q 85 464 85 -11 q 514 939 85 939 q 943 464 943 939 q 514 -11 943 -11 m 264 753 q 224 707 264 753 q 184 464 184 661 q 264 175 184 267 q 514 83 343 83 q 764 175 685 83 q 843 464 843 267 q 764 753 843 661 q 514 844 685 844 q 264 753 343 844 m 374 1006 l 485 1174 l 543 1174 l 654 1006 l 576 1006 l 514 1104 l 452 1006 l 374 1006 z "},"Õ":{"ha":1037,"x_min":85,"x_max":945,"o":"m 514 -11 q 85 464 85 -11 q 514 939 85 939 q 945 464 945 939 q 514 -11 945 -11 m 264 753 q 224 707 264 753 q 184 464 184 661 q 264 175 184 267 q 514 83 343 83 q 765 175 686 83 q 844 464 844 267 q 765 753 844 661 q 514 844 686 844 q 264 753 343 844 m 319 1007 l 319 1086 q 396 1135 355 1131 q 409 1135 403 1135 q 476 1119 444 1135 l 552 1078 q 618 1062 584 1062 q 632 1063 625 1062 q 710 1111 673 1067 l 710 1035 q 632 985 674 990 q 616 985 624 985 q 552 1001 583 985 l 476 1041 q 413 1057 445 1057 q 396 1057 405 1057 q 319 1007 355 1051 z "},"Ö":{"ha":1037,"x_min":85,"x_max":943,"o":"m 514 -11 q 299 -11 514 -11 q 85 464 85 -11 q 514 939 85 939 q 943 464 943 939 q 514 -11 943 -11 m 264 753 q 224 707 264 753 q 184 464 184 661 q 264 175 184 267 q 514 83 343 83 q 764 175 685 83 q 843 464 843 267 q 764 753 843 661 q 514 844 685 844 q 264 753 343 844 m 355 1006 l 355 1117 l 467 1117 l 467 1006 l 355 1006 m 561 1006 l 561 1117 l 672 1117 l 672 1006 l 561 1006 z "},"×":{"ha":668,"x_min":107,"x_max":567,"o":"m 107 109 l 292 355 l 107 603 l 196 603 l 336 415 l 478 603 l 567 603 l 382 355 l 567 109 l 478 109 l 336 296 l 196 109 l 107 109 z "},"Ø":{"ha":1037,"x_min":69,"x_max":960,"o":"m 69 0 l 176 127 q 85 464 85 244 q 514 939 85 939 q 793 859 688 939 l 851 926 l 960 926 l 851 799 q 945 464 944 681 q 514 -12 945 -12 q 236 68 342 -12 l 178 0 l 69 0 m 184 464 q 241 204 184 293 l 730 785 q 514 844 652 844 q 264 753 343 844 q 184 464 184 661 m 298 142 q 514 82 376 82 q 765 174 686 82 q 844 464 844 265 q 787 722 844 629 l 298 142 z "},"Ù":{"ha":1001,"x_min":121,"x_max":873,"o":"m 121 380 l 121 926 l 221 926 l 221 375 q 497 81 221 81 q 774 375 774 81 l 774 926 l 873 926 l 873 380 q 776 90 873 190 q 497 -11 679 -11 q 218 90 315 -11 q 121 380 121 191 m 353 1165 l 456 1165 l 534 1006 l 469 1006 l 353 1165 z "},"Ú":{"ha":1001,"x_min":121,"x_max":873,"o":"m 121 380 l 121 926 l 221 926 l 221 375 q 497 81 221 81 q 774 375 774 81 l 774 926 l 873 926 l 873 380 q 776 90 873 190 q 497 -11 679 -11 q 218 90 315 -11 q 121 380 121 191 m 460 1006 l 539 1165 l 642 1165 l 526 1006 l 460 1006 z "},"Û":{"ha":1001,"x_min":121,"x_max":873,"o":"m 121 380 l 121 926 l 221 926 l 221 375 q 497 81 221 81 q 774 375 774 81 l 774 926 l 873 926 l 873 380 q 776 90 873 190 q 497 -11 679 -11 q 218 90 315 -11 q 121 380 121 191 m 357 1006 l 468 1174 l 526 1174 l 637 1006 l 559 1006 l 497 1104 l 435 1006 l 357 1006 z "},"Ü":{"ha":1001,"x_min":121,"x_max":873,"o":"m 121 380 l 121 926 l 221 926 l 221 375 q 497 81 221 81 q 774 375 774 81 l 774 926 l 873 926 l 873 380 q 776 90 873 190 q 497 -11 679 -11 q 218 90 315 -11 q 121 380 121 191 m 339 1006 l 339 1117 l 450 1117 l 450 1006 l 339 1006 m 545 1006 l 545 1117 l 656 1117 l 656 1006 l 545 1006 z "},"Ý":{"ha":830,"x_min":17,"x_max":807,"o":"m 17 926 l 138 926 l 412 522 l 686 926 l 807 926 l 463 425 l 463 0 l 363 0 l 363 425 l 17 926 m 366 1006 l 444 1165 l 546 1165 l 431 1006 l 366 1006 z "},"Þ":{"ha":791,"x_min":119,"x_max":720,"o":"m 119 0 l 119 926 l 220 926 l 220 786 l 400 786 q 637 712 554 786 q 720 498 720 637 q 637 286 720 359 q 400 212 554 212 l 220 212 l 220 0 l 119 0 m 220 309 l 386 309 q 509 325 460 309 q 581 371 558 340 q 611 431 603 401 q 619 499 619 460 q 611 567 619 538 q 581 627 603 596 q 509 673 558 657 q 386 689 460 689 l 220 689 l 220 309 z "},"ß":{"ha":851,"x_min":122,"x_max":775,"o":"m 122 0 l 122 589 q 138 726 122 665 q 188 836 154 787 q 280 912 221 885 q 421 939 339 939 q 653 862 576 939 q 729 681 729 786 q 716 613 729 646 q 685 555 703 579 q 648 514 667 532 q 616 486 629 496 l 603 478 q 622 470 610 475 q 663 443 633 464 q 715 398 693 422 q 756 334 737 374 q 775 250 775 294 q 673 67 775 135 q 412 0 571 0 l 412 90 q 598 132 522 90 q 675 260 675 174 q 593 388 675 347 q 412 428 511 428 l 412 515 q 570 558 511 515 q 629 681 629 600 q 572 805 629 764 q 421 846 514 846 q 274 787 326 846 q 222 583 222 728 l 222 0 l 122 0 z "},"à":{"ha":741,"x_min":78,"x_max":653,"o":"m 78 212 q 95 297 78 260 q 138 358 113 335 q 201 398 163 382 q 270 423 240 415 q 341 435 300 431 q 399 439 382 439 q 440 440 416 440 l 551 433 q 500 566 551 526 q 349 606 449 606 q 146 572 236 606 l 146 669 q 354 705 248 705 q 576 632 500 705 q 653 418 653 558 l 653 208 q 622 95 653 142 q 543 26 591 47 q 452 -3 494 5 q 368 -11 410 -11 q 303 -7 336 -11 q 227 12 269 -3 q 153 49 184 26 q 100 114 122 72 q 78 212 78 157 m 178 212 q 366 82 178 82 q 368 82 368 82 q 553 208 553 82 l 553 342 q 429 350 507 350 q 178 212 178 350 m 241 943 l 343 943 l 422 783 l 357 783 l 241 943 z "},"á":{"ha":741,"x_min":78,"x_max":653,"o":"m 78 212 q 95 297 78 260 q 138 358 113 335 q 201 398 163 382 q 270 423 240 415 q 341 435 300 431 q 399 439 382 439 q 440 440 416 440 l 551 433 q 500 566 551 526 q 349 606 449 606 q 146 572 236 606 l 146 669 q 354 705 248 705 q 576 632 500 705 q 653 418 653 558 l 653 208 q 622 95 653 142 q 543 26 591 47 q 452 -3 494 5 q 368 -11 410 -11 q 303 -7 336 -11 q 227 12 269 -3 q 153 49 184 26 q 100 114 122 72 q 78 212 78 157 m 178 212 q 366 82 178 82 q 368 82 368 82 q 553 208 553 82 l 553 342 q 429 350 507 350 q 178 212 178 350 m 317 783 l 396 943 l 498 943 l 383 783 l 317 783 z "},"â":{"ha":741,"x_min":78,"x_max":653,"o":"m 78 212 q 95 297 78 260 q 138 358 113 335 q 201 398 163 382 q 270 423 240 415 q 341 435 300 431 q 399 439 382 439 q 440 440 416 440 l 551 433 q 500 566 551 526 q 349 606 449 606 q 146 572 236 606 l 146 669 q 354 705 248 705 q 576 632 500 705 q 653 418 653 558 l 653 208 q 622 95 653 142 q 543 26 591 47 q 452 -3 494 5 q 368 -11 410 -11 q 303 -7 336 -11 q 227 12 269 -3 q 153 49 184 26 q 100 114 122 72 q 78 212 78 157 m 178 212 q 366 82 178 82 q 368 82 368 82 q 553 208 553 82 l 553 342 q 429 350 507 350 q 178 212 178 350 m 245 783 l 357 950 l 415 950 l 526 783 l 449 783 l 386 880 l 323 783 l 245 783 z "},"ã":{"ha":741,"x_min":78,"x_max":653,"o":"m 78 212 q 95 297 78 260 q 138 358 113 335 q 201 398 163 382 q 269 423 239 415 q 341 435 300 431 q 398 439 382 439 q 439 440 415 440 l 551 433 q 500 566 551 526 q 349 606 449 606 q 146 574 247 606 l 146 669 q 354 705 241 705 q 576 632 500 705 q 653 418 653 558 l 653 208 q 622 95 653 142 q 543 26 591 47 q 452 -3 494 5 q 368 -11 410 -11 q 303 -7 336 -11 q 227 12 269 -3 q 153 49 184 26 q 100 114 122 72 q 78 212 78 157 m 178 214 q 366 82 178 82 q 368 82 368 82 q 553 208 553 82 l 553 342 q 429 350 507 350 q 178 214 178 350 m 182 785 l 182 864 q 259 913 218 909 q 273 913 267 913 q 339 897 307 913 l 416 856 q 482 840 448 840 q 496 840 489 840 q 574 889 538 844 l 574 812 q 496 763 538 768 q 480 762 488 762 q 416 779 447 762 l 339 819 q 275 835 309 835 q 260 834 268 835 q 182 785 218 829 z "},"ä":{"ha":741,"x_min":78,"x_max":653,"o":"m 78 212 q 95 297 78 260 q 138 358 113 335 q 201 398 163 382 q 270 423 240 415 q 341 435 300 431 q 399 439 382 439 q 440 440 416 440 l 551 433 q 500 566 551 526 q 349 606 449 606 q 146 572 236 606 l 146 669 q 354 705 248 705 q 576 632 500 705 q 653 418 653 558 l 653 208 q 622 95 653 142 q 543 26 591 47 q 452 -3 494 5 q 368 -11 410 -11 q 303 -7 336 -11 q 227 12 269 -3 q 153 49 184 26 q 100 114 122 72 q 78 212 78 157 m 178 212 q 366 82 178 82 q 368 82 368 82 q 553 208 553 82 l 553 342 q 429 350 507 350 q 178 212 178 350 m 228 783 l 228 893 l 339 893 l 339 783 l 228 783 m 433 783 l 433 893 l 545 893 l 545 783 l 433 783 z "},"å":{"ha":741,"x_min":78,"x_max":653,"o":"m 78 212 q 95 297 78 260 q 138 358 113 335 q 201 398 163 382 q 270 423 240 415 q 341 435 300 431 q 399 439 382 439 q 440 440 416 440 l 551 433 q 500 566 551 526 q 349 606 449 606 q 146 572 236 606 l 146 669 q 354 705 248 705 q 576 632 500 705 q 653 418 653 558 l 653 208 q 622 95 653 142 q 543 26 591 47 q 452 -3 494 5 q 368 -11 410 -11 q 303 -7 336 -11 q 227 12 269 -3 q 153 49 184 26 q 100 114 122 72 q 78 212 78 157 m 178 212 q 366 82 178 82 q 368 82 368 82 q 553 208 553 82 l 553 342 q 429 350 507 350 q 178 212 178 350 m 296 772 q 281 787 296 772 q 267 857 267 802 q 296 942 267 913 q 379 971 325 971 q 463 942 433 971 q 492 857 492 913 q 463 772 492 802 q 379 743 433 743 q 296 772 325 743 m 331 908 q 324 901 331 908 q 317 857 317 893 q 331 805 317 821 q 379 789 345 789 q 427 805 412 789 q 441 857 441 821 q 427 908 441 893 q 379 924 412 924 q 331 908 345 924 z "},"æ":{"ha":1237,"x_min":75,"x_max":1157,"o":"m 75 212 q 93 297 75 260 q 135 358 110 335 q 198 398 160 382 q 267 423 236 415 q 338 435 297 431 q 396 439 379 439 q 436 440 412 440 l 549 433 q 497 566 549 526 q 346 606 446 606 q 143 572 233 606 l 143 669 q 350 705 246 705 q 606 591 532 705 q 851 705 682 705 q 967 685 915 705 q 1050 638 1019 665 q 1103 567 1080 611 q 1136 493 1126 524 q 1152 419 1146 463 q 1157 366 1157 376 l 1157 336 l 1154 288 l 648 288 q 712 136 658 183 q 875 89 766 89 q 1112 140 1023 89 l 1112 37 q 868 -11 1009 -11 q 864 -11 866 -11 q 616 92 696 -11 q 368 -11 547 -11 q 366 -11 367 -11 q 300 -7 334 -11 q 224 12 267 -3 q 151 49 182 26 q 97 114 119 72 q 75 212 75 157 m 175 212 q 363 82 175 82 q 366 82 365 82 q 549 208 549 82 l 549 342 q 427 350 504 350 q 175 212 175 350 m 648 376 l 1054 376 q 1048 429 1054 400 q 1026 504 1043 458 q 963 581 1008 550 q 851 611 918 611 q 702 557 749 611 q 648 376 655 504 z "},"ç":{"ha":655,"x_min":81,"x_max":611,"o":"m 81 347 q 110 527 81 453 q 189 638 139 602 q 291 690 239 675 q 406 705 343 705 q 611 667 510 705 l 611 571 q 416 610 516 610 q 237 547 293 610 q 180 347 180 485 q 237 146 180 208 q 416 85 293 85 q 611 123 521 85 l 611 26 q 458 -9 533 -1 l 372 -165 l 267 -165 l 378 -11 q 271 10 319 -8 q 177 66 222 28 q 106 176 132 104 q 81 347 81 248 z "},"è":{"ha":770,"x_min":87,"x_max":697,"o":"m 87 338 q 87 342 87 339 q 87 348 87 346 q 392 705 87 705 q 508 685 456 705 q 590 638 559 665 q 644 567 621 611 q 676 493 667 524 q 692 419 686 463 q 697 366 697 376 l 697 336 l 694 288 l 189 288 q 253 136 199 183 q 414 89 307 89 q 652 140 565 89 l 652 37 q 408 -11 551 -11 q 404 -11 406 -11 q 292 4 343 -11 q 192 54 241 18 q 115 162 143 90 q 87 338 87 235 m 189 376 l 595 376 q 589 429 595 400 q 566 504 583 458 q 504 581 549 550 q 392 611 458 611 q 242 557 289 611 q 189 376 196 504 m 268 943 l 371 943 l 450 783 l 383 783 l 268 943 z "},"é":{"ha":770,"x_min":87,"x_max":697,"o":"m 87 338 q 87 342 87 339 q 87 348 87 346 q 392 705 87 705 q 508 685 456 705 q 590 638 559 665 q 644 567 621 611 q 676 493 667 524 q 692 419 686 463 q 697 366 697 376 l 697 336 l 694 288 l 189 288 q 253 136 199 183 q 414 89 307 89 q 652 140 565 89 l 652 37 q 408 -11 551 -11 q 404 -11 406 -11 q 292 4 343 -11 q 192 54 241 18 q 115 162 143 90 q 87 338 87 235 m 189 376 l 595 376 q 589 429 595 400 q 566 504 583 458 q 504 581 549 550 q 392 611 458 611 q 242 557 289 611 q 189 376 196 504 m 343 783 l 422 943 l 525 943 l 410 783 l 343 783 z "},"ê":{"ha":770,"x_min":87,"x_max":697,"o":"m 87 338 q 87 342 87 339 q 87 348 87 346 q 392 705 87 705 q 508 685 456 705 q 590 638 559 665 q 644 567 621 611 q 676 493 667 524 q 692 419 686 463 q 697 366 697 376 l 697 336 l 694 288 l 189 288 q 253 136 199 183 q 414 89 307 89 q 652 140 565 89 l 652 37 q 408 -11 551 -11 q 404 -11 406 -11 q 292 4 343 -11 q 192 54 241 18 q 115 162 143 90 q 87 338 87 235 m 189 376 l 595 376 q 589 429 595 400 q 566 504 583 458 q 504 581 549 550 q 392 611 458 611 q 242 557 289 611 q 189 376 196 504 m 252 783 l 363 950 l 421 950 l 532 783 l 454 783 l 392 880 l 329 783 l 252 783 z "},"ë":{"ha":770,"x_min":87,"x_max":697,"o":"m 87 338 q 87 342 87 339 q 87 348 87 346 q 392 705 87 705 q 508 685 456 705 q 590 638 559 665 q 644 567 621 611 q 676 493 667 524 q 692 419 686 463 q 697 366 697 376 l 697 336 l 694 288 l 189 288 q 253 136 199 183 q 414 89 307 89 q 652 140 565 89 l 652 37 q 408 -11 551 -11 q 404 -11 406 -11 q 292 4 343 -11 q 192 54 241 18 q 115 162 143 90 q 87 338 87 235 m 189 376 l 595 376 q 589 429 595 400 q 566 504 583 458 q 504 581 549 550 q 392 611 458 611 q 242 557 289 611 q 189 376 196 504 m 233 783 l 233 893 l 345 893 l 345 783 l 233 783 m 439 783 l 439 893 l 550 893 l 550 783 l 439 783 z "},"ì":{"ha":374,"x_min":39,"x_max":237,"o":"m 39 943 l 142 943 l 221 783 l 154 783 l 39 943 m 138 0 l 138 693 l 237 693 l 237 0 l 138 0 z "},"í":{"ha":374,"x_min":138,"x_max":335,"o":"m 138 0 l 237 0 l 237 693 l 138 693 l 138 0 m 154 783 l 232 943 l 335 943 l 220 783 l 154 783 z "},"î":{"ha":374,"x_min":46,"x_max":328,"o":"m 46 783 l 158 950 l 215 950 l 328 783 l 250 783 l 187 880 l 123 783 l 46 783 m 138 0 l 237 0 l 237 693 l 138 693 l 138 0 z "},"ï":{"ha":374,"x_min":29,"x_max":345,"o":"m 29 783 l 29 893 l 139 893 l 139 783 l 29 783 m 138 0 l 237 0 l 237 693 l 138 693 l 138 0 m 235 783 l 235 893 l 345 893 l 345 783 l 235 783 z "},"ð":{"ha":809,"x_min":81,"x_max":711,"o":"m 81 301 q 165 514 81 436 q 396 593 250 593 q 604 532 522 593 q 486 779 587 697 l 330 692 l 293 758 l 408 822 q 278 844 350 844 q 203 839 250 844 l 203 932 q 289 939 248 939 q 511 880 414 939 l 640 953 l 676 886 l 578 829 q 711 425 711 699 q 396 -11 711 -11 q 249 17 313 -11 q 151 91 186 45 q 98 191 115 138 q 81 301 81 244 m 180 302 q 187 245 180 275 q 213 176 193 216 q 279 109 232 135 q 396 83 327 83 q 444 85 425 83 q 497 105 463 87 q 553 156 532 123 q 592 257 575 189 q 611 421 610 325 q 398 500 536 500 q 396 500 397 500 q 236 449 292 500 q 180 302 180 397 z "},"ñ":{"ha":806,"x_min":114,"x_max":682,"o":"m 114 0 l 114 637 q 407 705 250 705 q 610 639 538 705 q 682 452 682 572 l 682 0 l 582 0 l 582 452 q 576 504 582 481 q 552 552 570 526 q 495 592 534 578 q 396 606 456 606 q 214 578 309 606 l 214 0 l 114 0 m 203 785 l 203 864 q 279 913 239 909 q 294 913 287 913 q 359 897 327 913 l 435 856 q 501 840 467 840 q 515 840 508 840 q 593 889 557 844 l 593 812 q 515 763 557 768 q 499 762 507 762 q 435 779 466 762 l 359 819 q 296 835 328 835 q 279 834 288 835 q 203 785 239 829 z "},"ò":{"ha":783,"x_min":68,"x_max":720,"o":"m 97 167 q 82 204 97 167 q 68 347 68 241 q 97 527 68 453 q 176 638 126 602 q 279 690 227 675 q 394 705 332 705 q 509 690 457 705 q 611 638 561 675 q 690 527 661 602 q 720 347 720 453 q 690 167 720 241 q 611 56 661 93 q 509 4 561 20 q 394 -11 457 -11 q 279 4 332 -11 q 176 56 227 20 q 97 167 126 93 m 222 551 q 195 519 222 551 q 168 347 168 488 q 222 144 168 207 q 395 81 277 81 q 566 144 513 81 q 619 347 619 208 q 566 550 619 486 q 395 614 513 614 q 222 551 277 614 m 245 943 l 349 943 l 428 783 l 361 783 l 245 943 z "},"ó":{"ha":783,"x_min":68,"x_max":720,"o":"m 97 167 q 82 204 97 167 q 68 347 68 241 q 97 527 68 453 q 176 638 126 602 q 279 690 227 675 q 394 705 332 705 q 509 690 457 705 q 611 638 561 675 q 690 527 661 602 q 720 347 720 453 q 690 167 720 241 q 611 56 661 93 q 509 4 561 20 q 394 -11 457 -11 q 279 4 332 -11 q 176 56 227 20 q 97 167 126 93 m 222 551 q 195 519 222 551 q 168 347 168 488 q 222 144 168 207 q 395 81 277 81 q 566 144 513 81 q 619 347 619 208 q 566 550 619 486 q 395 614 513 614 q 222 551 277 614 m 359 783 l 439 943 l 542 943 l 427 783 l 359 783 z "},"ô":{"ha":783,"x_min":68,"x_max":720,"o":"m 97 167 q 82 204 97 167 q 68 347 68 241 q 97 527 68 453 q 176 638 126 602 q 279 690 227 675 q 394 705 332 705 q 509 690 457 705 q 611 638 561 675 q 690 527 661 602 q 720 347 720 453 q 690 167 720 241 q 611 56 661 93 q 509 4 561 20 q 394 -11 457 -11 q 279 4 332 -11 q 176 56 227 20 q 97 167 126 93 m 222 551 q 195 519 222 551 q 168 347 168 488 q 222 144 168 207 q 395 81 277 81 q 566 144 513 81 q 619 347 619 208 q 566 550 619 486 q 395 614 513 614 q 222 551 277 614 m 253 783 l 366 950 l 422 950 l 534 783 l 457 783 l 395 880 l 330 783 l 253 783 z "},"õ":{"ha":783,"x_min":68,"x_max":720,"o":"m 97 167 q 82 204 97 167 q 68 347 68 241 q 97 527 68 453 q 176 638 126 602 q 278 690 227 675 q 393 705 330 705 q 508 690 456 705 q 611 638 561 675 q 690 527 661 602 q 720 347 720 453 q 690 167 720 241 q 611 56 661 93 q 508 4 561 20 q 393 -11 456 -11 q 278 4 330 -11 q 176 56 227 20 q 97 167 126 93 m 222 551 q 195 519 222 551 q 168 347 168 488 q 222 144 168 207 q 393 81 275 81 q 565 144 511 81 q 619 347 619 207 q 565 551 619 488 q 393 614 511 614 q 222 551 275 614 m 204 786 l 204 864 q 281 913 240 909 q 296 914 289 914 q 361 898 330 914 l 437 857 q 501 840 468 840 q 517 841 509 840 q 595 890 558 846 l 595 812 q 517 763 559 768 q 501 762 509 762 q 437 779 467 762 l 361 819 q 295 836 329 836 q 281 835 288 836 q 204 786 240 831 z "},"ö":{"ha":783,"x_min":68,"x_max":720,"o":"m 97 167 q 82 204 97 167 q 68 347 68 241 q 97 527 68 453 q 176 638 126 602 q 279 690 227 675 q 394 705 332 705 q 509 690 457 705 q 611 638 561 675 q 690 527 661 602 q 720 347 720 453 q 690 167 720 241 q 611 56 661 93 q 509 4 561 20 q 394 -11 457 -11 q 279 4 332 -11 q 176 56 227 20 q 97 167 126 93 m 222 551 q 195 519 222 551 q 168 347 168 488 q 222 144 168 207 q 395 81 277 81 q 566 144 513 81 q 619 347 619 208 q 566 550 619 486 q 395 614 513 614 q 222 551 277 614 m 236 783 l 236 893 l 346 893 l 346 783 l 236 783 m 441 783 l 441 893 l 551 893 l 551 783 l 441 783 z "},"÷":{"ha":872,"x_min":154,"x_max":718,"o":"m 154 315 l 718 315 l 718 399 l 154 399 l 154 315 m 380 103 l 380 214 l 492 214 l 492 103 l 380 103 m 380 498 l 380 610 l 492 610 l 492 498 l 380 498 z "},"ø":{"ha":797,"x_min":52,"x_max":745,"o":"m 52 0 l 138 103 q 72 347 73 193 q 101 527 72 453 q 181 638 131 602 q 283 690 231 675 q 399 705 336 705 q 600 650 521 705 l 636 693 l 745 693 l 660 591 q 724 347 724 503 q 694 167 724 241 q 615 56 665 93 q 513 4 566 20 q 399 -11 461 -11 q 197 43 275 -11 l 160 0 l 52 0 m 172 347 q 203 180 172 240 l 539 578 q 399 614 486 614 q 227 551 281 614 q 172 347 172 488 m 258 115 q 399 81 310 81 q 570 144 517 81 q 624 347 624 207 q 593 514 624 453 l 258 115 z "},"ù":{"ha":815,"x_min":114,"x_max":694,"o":"m 114 292 l 114 693 l 214 693 l 214 286 q 260 131 214 180 q 404 82 306 82 q 548 131 501 82 q 595 286 595 180 l 595 693 l 694 693 l 694 292 q 619 68 694 147 q 404 -11 543 -11 q 190 68 265 -11 q 114 292 114 147 m 260 943 l 363 943 l 441 783 l 375 783 l 260 943 z "},"ú":{"ha":815,"x_min":114,"x_max":694,"o":"m 114 292 l 114 693 l 214 693 l 214 286 q 260 131 214 180 q 404 82 306 82 q 548 131 501 82 q 595 286 595 180 l 595 693 l 694 693 l 694 292 q 619 68 694 147 q 404 -11 543 -11 q 190 68 265 -11 q 114 292 114 147 m 367 783 l 446 943 l 547 943 l 432 783 l 367 783 z "},"û":{"ha":815,"x_min":114,"x_max":694,"o":"m 114 292 l 114 693 l 214 693 l 214 286 q 260 131 214 180 q 404 82 306 82 q 548 131 501 82 q 595 286 595 180 l 595 693 l 694 693 l 694 292 q 619 68 694 147 q 404 -11 543 -11 q 190 68 265 -11 q 114 292 114 147 m 264 783 l 375 950 l 432 950 l 545 783 l 467 783 l 404 880 l 342 783 l 264 783 z "},"ü":{"ha":815,"x_min":114,"x_max":694,"o":"m 114 292 l 114 693 l 214 693 l 214 286 q 260 131 214 180 q 404 82 306 82 q 548 131 501 82 q 595 286 595 180 l 595 693 l 694 693 l 694 292 q 619 68 694 147 q 404 -11 543 -11 q 190 68 265 -11 q 114 292 114 147 m 245 783 l 245 893 l 357 893 l 357 783 l 245 783 m 452 783 l 452 893 l 562 893 l 562 783 l 452 783 z "},"ý":{"ha":697,"x_min":43,"x_max":654,"o":"m 43 693 l 150 693 l 349 144 l 547 693 l 654 693 l 371 -68 q 154 -268 297 -268 q 87 -256 119 -268 l 87 -164 q 147 -176 115 -176 q 228 -130 190 -176 q 282 -36 265 -83 l 298 11 l 43 693 m 304 783 l 383 943 l 486 943 l 371 783 l 304 783 z "},"þ":{"ha":770,"x_min":115,"x_max":704,"o":"m 115 -256 l 115 949 l 215 949 l 215 668 q 386 696 298 696 q 475 687 433 696 q 560 655 517 679 q 634 594 603 632 q 685 493 665 557 q 704 346 704 429 q 675 171 704 243 q 598 62 647 98 q 497 12 549 26 q 386 -3 446 -3 q 215 25 298 -3 l 215 -256 l 115 -256 m 215 125 q 386 90 294 90 q 553 151 501 90 q 604 346 604 211 q 553 542 604 481 q 386 603 501 603 q 215 568 294 603 l 215 125 z "},"ÿ":{"ha":697,"x_min":43,"x_max":654,"o":"m 43 693 l 150 693 l 349 144 l 547 693 l 654 693 l 371 -68 q 154 -268 297 -268 q 87 -256 119 -268 l 87 -164 q 147 -176 115 -176 q 228 -130 190 -176 q 282 -36 265 -83 l 298 11 l 43 693 m 189 783 l 189 893 l 298 893 l 298 783 l 189 783 m 395 783 l 395 893 l 504 893 l 504 783 l 395 783 z "},"Œ":{"ha":1376,"x_min":83,"x_max":1284,"o":"m 513 -11 q 83 464 83 -11 q 513 939 83 939 q 699 908 621 939 l 699 926 l 1284 926 l 1284 832 l 799 832 l 799 513 l 1225 513 l 1225 415 l 799 415 l 799 94 l 1284 94 l 1284 0 l 699 0 l 699 18 q 513 -11 619 -11 m 262 753 q 223 707 262 753 q 183 464 183 661 q 262 175 183 267 q 513 83 342 83 q 699 123 628 83 l 699 804 q 513 844 625 844 q 262 753 342 844 z "},"œ":{"ha":1303,"x_min":69,"x_max":1223,"o":"m 98 167 q 84 204 98 167 q 69 347 69 241 q 98 527 69 453 q 178 638 127 602 q 280 690 228 675 q 395 705 332 705 q 664 579 584 705 q 920 705 741 705 q 1035 685 983 705 q 1118 638 1086 665 q 1171 567 1149 611 q 1203 493 1193 524 q 1218 419 1213 463 q 1223 366 1223 376 l 1223 336 l 1222 288 l 717 288 q 781 136 726 183 q 942 89 835 89 q 1179 140 1090 89 l 1179 37 q 936 -11 1079 -11 q 932 -11 934 -11 q 665 118 745 -11 q 395 -11 585 -11 q 280 4 332 -11 q 178 56 228 20 q 98 167 127 93 m 223 551 q 196 519 223 551 q 170 347 170 488 q 223 144 170 207 q 395 81 277 81 q 567 144 513 81 q 621 347 621 207 q 567 551 621 488 q 395 614 513 614 q 223 551 277 614 m 715 376 l 1122 376 q 1117 429 1122 399 q 1093 504 1111 458 q 1030 581 1075 550 q 920 611 985 611 q 769 557 817 611 q 715 376 722 504 z "},"Ÿ":{"ha":830,"x_min":17,"x_max":807,"o":"m 17 926 l 138 926 l 412 522 l 686 926 l 807 926 l 463 425 l 463 0 l 363 0 l 363 425 l 17 926 m 254 1006 l 254 1117 l 366 1117 l 366 1006 l 254 1006 m 460 1006 l 460 1117 l 571 1117 l 571 1006 l 460 1006 z "},"ˆ":{"ha":558,"x_min":140,"x_max":421,"o":"m 140 783 l 253 950 l 310 950 l 421 783 l 343 783 l 281 880 l 218 783 l 140 783 z "},"˜":{"ha":704,"x_min":146,"x_max":536,"o":"m 146 785 l 146 864 q 222 913 182 909 q 237 913 230 913 q 302 897 270 913 l 378 856 q 444 840 410 840 q 458 840 451 840 q 536 889 500 844 l 536 812 q 458 763 500 768 q 443 762 450 762 q 378 779 409 762 l 302 819 q 239 835 271 835 q 222 834 231 835 q 146 785 182 829 z "},"–":{"ha":777,"x_min":96,"x_max":679,"o":"m 96 358 l 96 444 l 679 444 l 679 358 l 96 358 z "},"—":{"ha":1237,"x_min":110,"x_max":1128,"o":"m 110 358 l 110 450 l 1128 450 l 1128 358 l 110 358 z "},"‘":{"ha":354,"x_min":65,"x_max":282,"o":"m 65 939 l 179 939 l 282 667 l 182 667 l 65 939 z "},"’":{"ha":354,"x_min":65,"x_max":282,"o":"m 65 667 l 168 939 l 282 939 l 165 667 l 65 667 z "},"‚":{"ha":416,"x_min":100,"x_max":315,"o":"m 100 -155 l 203 117 l 315 117 l 200 -155 l 100 -155 z "},"“":{"ha":543,"x_min":65,"x_max":471,"o":"m 65 939 l 179 939 l 282 667 l 182 667 l 65 939 m 254 939 l 368 939 l 471 667 l 371 667 l 254 939 z "},"”":{"ha":537,"x_min":65,"x_max":471,"o":"m 65 667 l 168 939 l 282 939 l 165 667 l 65 667 m 254 667 l 357 939 l 471 939 l 354 667 l 254 667 z "},"„":{"ha":605,"x_min":100,"x_max":505,"o":"m 100 -155 l 203 117 l 315 117 l 200 -155 l 100 -155 m 289 -155 l 392 117 l 505 117 l 389 -155 l 289 -155 z "},"•":{"ha":576,"x_min":125,"x_max":446,"o":"m 172 350 q 149 374 172 350 q 125 464 125 397 q 172 577 125 530 q 286 624 220 624 q 398 577 351 624 q 446 464 446 530 q 398 350 446 397 q 286 302 351 302 q 172 350 220 302 z "},"…":{"ha":1069,"x_min":149,"x_max":924,"o":"m 149 0 l 149 111 l 260 111 l 260 0 l 149 0 m 482 0 l 482 111 l 591 111 l 591 0 l 482 0 m 814 0 l 814 111 l 924 111 l 924 0 l 814 0 z "},"‹":{"ha":481,"x_min":43,"x_max":412,"o":"m 43 354 l 278 618 l 412 618 l 165 354 l 412 89 l 278 89 l 43 354 z "},"›":{"ha":526,"x_min":93,"x_max":463,"o":"m 93 89 l 339 354 l 93 618 l 227 618 l 463 354 l 227 89 l 93 89 z "},"€":{"ha":943,"x_min":69,"x_max":869,"o":"m 69 317 l 69 400 l 161 400 q 159 464 159 441 q 158 468 158 466 q 161 528 158 490 l 69 528 l 69 611 l 171 611 q 587 939 232 939 q 869 885 733 939 l 869 789 q 599 844 738 844 q 378 787 458 844 q 272 611 298 730 l 718 611 l 718 528 l 261 528 q 258 464 258 486 q 261 400 258 439 l 718 400 l 718 317 l 272 317 q 378 140 298 197 q 599 83 458 83 q 869 138 741 83 l 869 41 q 591 -11 734 -11 q 587 -11 589 -11 q 171 317 232 -11 l 69 317 z "},"™":{"ha":1051,"x_min":68,"x_max":945,"o":"m 68 878 l 68 926 l 446 926 l 446 878 l 282 878 l 282 464 l 232 464 l 232 878 l 68 878 m 517 464 l 517 926 l 571 926 l 730 692 l 890 926 l 945 926 l 945 464 l 895 464 l 895 844 l 730 608 l 567 844 l 567 464 l 517 464 z "},"":{"ha":692,"x_min":0,"x_max":692,"o":"m 0 692 l 692 692 l 692 0 l 0 0 l 0 692 z "},"ﬁ":{"ha":815,"x_min":57,"x_max":711,"o":"m 57 602 l 57 694 l 176 694 l 176 730 q 196 854 176 802 q 239 930 215 905 q 299 968 262 954 q 355 983 336 982 q 400 985 374 985 q 468 978 436 985 l 468 888 q 418 893 440 893 q 378 892 391 893 q 341 882 364 890 q 306 858 318 873 q 283 810 293 843 q 273 732 273 778 l 273 694 l 468 694 l 468 602 l 273 602 l 273 0 l 176 0 l 176 602 l 57 602 m 600 817 l 600 926 l 711 926 l 711 817 l 600 817 m 606 0 l 705 0 l 705 693 l 606 693 l 606 0 z "},"ﬂ":{"ha":827,"x_min":57,"x_max":705,"o":"m 57 602 l 57 694 l 176 694 l 176 730 q 196 854 176 802 q 239 930 215 905 q 299 968 262 954 q 355 983 336 982 q 400 985 374 985 q 468 978 436 985 l 468 888 q 418 893 440 893 q 378 892 391 893 q 341 882 364 890 q 306 858 318 873 q 283 810 293 843 q 273 732 273 778 l 273 694 l 468 694 l 468 602 l 273 602 l 273 0 l 176 0 l 176 602 l 57 602 m 606 0 l 705 0 l 705 957 l 606 957 l 606 0 z "},"ﬃ":{"ha":1282,"x_min":56,"x_max":1157,"o":"m 1046 817 l 1046 926 l 1157 926 l 1157 817 l 1046 817 m 1052 0 l 1152 0 l 1152 693 l 1052 693 l 1052 0 m 513 602 l 513 693 l 633 693 l 633 730 q 651 854 633 802 q 694 930 670 905 q 754 968 718 954 q 811 983 791 982 q 857 985 830 985 q 923 977 894 985 l 923 888 q 873 893 895 893 q 822 890 840 893 q 781 874 805 888 q 745 824 756 860 q 733 732 733 789 l 733 693 l 923 693 l 923 602 l 733 602 l 733 0 l 633 0 l 633 602 l 513 602 m 56 602 l 56 693 l 175 693 l 175 730 q 194 854 175 802 q 236 930 212 905 q 297 968 260 954 q 353 983 334 982 q 399 985 372 985 q 465 977 436 985 l 465 888 q 415 893 437 893 q 365 890 382 893 q 323 874 347 888 q 287 824 298 860 q 275 732 275 789 l 275 693 l 465 693 l 465 602 l 275 602 l 275 0 l 175 0 l 175 602 l 56 602 z "},"ﬄ":{"ha":1290,"x_min":56,"x_max":1156,"o":"m 1056 0 l 1056 957 l 1156 957 l 1156 0 l 1056 0 m 513 602 l 513 693 l 633 693 l 633 730 q 651 854 633 802 q 694 930 670 905 q 754 968 718 954 q 811 983 791 982 q 857 985 830 985 q 923 977 894 985 l 923 888 q 873 893 895 893 q 822 890 840 893 q 781 874 805 888 q 745 824 756 860 q 733 732 733 789 l 733 693 l 923 693 l 923 602 l 733 602 l 733 0 l 633 0 l 633 602 l 513 602 m 56 602 l 56 693 l 175 693 l 175 730 q 194 854 175 802 q 236 930 212 905 q 297 968 260 954 q 353 983 334 982 q 399 985 372 985 q 465 977 436 985 l 465 888 q 415 893 437 893 q 365 890 382 893 q 323 874 347 888 q 287 824 298 860 q 275 732 275 789 l 275 693 l 465 693 l 465 602 l 275 602 l 275 0 l 175 0 l 175 602 l 56 602 z "}}}
